<svg xmlns="http://www.w3.org/2000/svg" width="16.003" height="9.452" viewBox="0 0 16.003 9.452">
  <g id="down-arrow" transform="translate(0 -100.698)">
    <g id="Group_18" data-name="Group 18" transform="translate(0 100.698)">
      <path id="Path_312" data-name="Path 312" d="M15.747,101.488l-.524-.528a.877.877,0,0,0-1.238,0l-5.98,5.98-5.987-5.987a.878.878,0,0,0-1.238,0l-.524.525a.876.876,0,0,0,0,1.238l7.128,7.153A.9.9,0,0,0,8,110.15h0a.9.9,0,0,0,.619-.281l7.121-7.134a.888.888,0,0,0,0-1.247Z" transform="translate(0 -100.698)" fill="#737373"/>
    </g>
  </g>
</svg>
