<svg xmlns="http://www.w3.org/2000/svg" width="17.293" height="20.711" viewBox="0 0 17.293 20.711">
  <g id="bell" transform="translate(-1.9 0.1)">
    <g id="Group_1" data-name="Group 1" transform="translate(8.837 0)">
      <path id="Path_298" data-name="Path 298" d="M12.991,3.572a.427.427,0,0,1-.427-.427V1.709a.855.855,0,1,0-1.709,0V3.145a.427.427,0,1,1-.855,0V1.709a1.709,1.709,0,1,1,3.419,0V3.145A.427.427,0,0,1,12.991,3.572Z" transform="translate(-10 0)" fill="#fff" stroke="#fff" stroke-width="0.2"/>
    </g>
    <g id="Group_2" data-name="Group 2" transform="translate(7.555 17.093)">
      <path id="Path_299" data-name="Path 299" d="M11.491,23.419A3,3,0,0,1,8.5,20.427a.427.427,0,1,1,.855,0,2.137,2.137,0,0,0,4.273,0,.427.427,0,1,1,.855,0A3,3,0,0,1,11.491,23.419Z" transform="translate(-8.5 -20)" fill="#fff" stroke="#fff" stroke-width="0.2"/>
    </g>
    <g id="Group_3" data-name="Group 3" transform="translate(2 2.564)">
      <path id="Path_300" data-name="Path 300" d="M17.811,18.384H3.282a1.282,1.282,0,0,1-.833-2.256,5.942,5.942,0,0,0,2.115-4.548v-2.6a5.982,5.982,0,1,1,11.965,0v2.6a5.935,5.935,0,0,0,2.108,4.542,1.282,1.282,0,0,1-.826,2.262ZM10.546,3.855A5.133,5.133,0,0,0,5.419,8.982v2.6a6.79,6.79,0,0,1-2.411,5.2.427.427,0,0,0,.274.755H17.811a.427.427,0,0,0,.278-.752,6.8,6.8,0,0,1-2.414-5.2v-2.6a5.133,5.133,0,0,0-5.128-5.128Z" transform="translate(-2 -3)" fill="#fff" stroke="#fff" stroke-width="0.2"/>
    </g>
  </g>
</svg>
