<svg xmlns="http://www.w3.org/2000/svg" width="10.76" height="6.356" viewBox="0 0 10.76 6.356">
  <g id="down-arrow" transform="translate(10.76 107.054) rotate(180)">
    <g id="Group_18" data-name="Group 18" transform="translate(0 100.698)">
      <path id="Path_312" data-name="Path 312" d="M10.588,101.229l-.352-.355a.59.59,0,0,0-.833,0L5.383,104.9,1.357,100.87a.59.59,0,0,0-.832,0l-.353.353a.589.589,0,0,0,0,.832l4.793,4.81a.6.6,0,0,0,.417.189h0a.6.6,0,0,0,.416-.189l4.788-4.8a.6.6,0,0,0,0-.839Z" transform="translate(0 -100.698)" fill="#fff"/>
    </g>
  </g>
</svg>
