<svg xmlns="http://www.w3.org/2000/svg" width="15.816" height="26.778" viewBox="0 0 15.816 26.778">
  <g id="down-arrow" transform="translate(116.514) rotate(90)">
    <g id="Group_18" data-name="Group 18" transform="translate(0 100.698)">
      <path id="Path_312" data-name="Path 312" d="M26.35,102.02l-.877-.883a1.468,1.468,0,0,0-2.072,0L13.395,111.143,3.377,101.126a1.469,1.469,0,0,0-2.072,0L.428,102a1.466,1.466,0,0,0,0,2.071l11.927,11.97a1.5,1.5,0,0,0,1.039.47h0a1.5,1.5,0,0,0,1.035-.47L26.35,104.107a1.486,1.486,0,0,0,0-2.087Z" transform="translate(0 -100.698)" fill="#fff"/>
    </g>
  </g>
</svg>
