<svg id="Group_27" data-name="Group 27" xmlns="http://www.w3.org/2000/svg" width="20.445" height="14.669" viewBox="0 0 20.445 14.669">
  <path id="Path_323" data-name="Path 323" d="M20.049,59.524H18.7v-.46a.4.4,0,0,0-.285-.4,11.163,11.163,0,0,0-2.857-.365,7.37,7.37,0,0,0-5.342,1.981A7.292,7.292,0,0,0,4.874,58.3a11.163,11.163,0,0,0-2.857.365.4.4,0,0,0-.285.4v.456H.4a.4.4,0,0,0-.4.4V72.574a.4.4,0,0,0,.59.345,13.972,13.972,0,0,1,9.535-.793h.1a.4.4,0,0,0,.1,0,13.736,13.736,0,0,1,9.535.793.4.4,0,0,0,.594-.341V59.92A.4.4,0,0,0,20.049,59.524ZM.793,71.944V60.317H1.74v9.939a.4.4,0,0,0,.456.4,17.343,17.343,0,0,1,2.477-.2,10.28,10.28,0,0,1,3.384.511A14.569,14.569,0,0,0,.793,71.944Zm3.88-2.279a17.438,17.438,0,0,0-2.156.139V59.377a10.93,10.93,0,0,1,2.35-.262,6.47,6.47,0,0,1,4.946,1.942l.012,9.872A9.264,9.264,0,0,0,4.672,69.665Zm5.944-8.608a6.529,6.529,0,0,1,4.946-1.942,10.978,10.978,0,0,1,2.35.262V69.8a17.433,17.433,0,0,0-2.144-.143,9.341,9.341,0,0,0-5.152,1.264Zm9.032,10.886a14.572,14.572,0,0,0-7.28-.979,10.3,10.3,0,0,1,3.4-.511,17.338,17.338,0,0,1,2.493.194.4.4,0,0,0,.456-.4V60.317h.947Z" transform="translate(0 -58.303)" fill="#fff"/>
</svg>
