<svg id="visibility" xmlns="http://www.w3.org/2000/svg" width="23.13" height="15.806" viewBox="0 0 23.13 15.806">
  <path id="Path_326" data-name="Path 326" d="M174.5,170.667a3.832,3.832,0,1,0,3.832,3.832A3.835,3.835,0,0,0,174.5,170.667Z" transform="translate(-162.934 -166.596)" fill="#47576a"/>
  <path id="Path_327" data-name="Path 327" d="M11.565,74.667A12.435,12.435,0,0,0,0,82.57a12.414,12.414,0,0,0,23.13,0A12.43,12.43,0,0,0,11.565,74.667Zm0,13.172a5.269,5.269,0,1,1,5.257-5.269A5.265,5.265,0,0,1,11.565,87.839Z" transform="translate(0 -74.667)" fill="#47576a"/>
</svg>
