<svg id="gallery" xmlns="http://www.w3.org/2000/svg" width="17.222" height="15.095" viewBox="0 0 17.222 15.095">
  <g id="Group_20" data-name="Group 20" transform="translate(0 0)">
    <g id="Group_19" data-name="Group 19">
      <path id="Path_313" data-name="Path 313" d="M175.746,159.668a1.757,1.757,0,1,0,1.757,1.757A1.757,1.757,0,0,0,175.746,159.668Zm0,2.677a.92.92,0,0,1,0-1.84h0a.92.92,0,1,1,0,1.84Z" transform="translate(-167.024 -154.34)" fill="#fff"/>
      <path id="Path_314" data-name="Path 314" d="M15.728,27.888l-11.419-1.3a1.568,1.568,0,0,0-1.234.356,1.589,1.589,0,0,0-.607,1.088l-.209,1.715H1.611A1.681,1.681,0,0,0,0,31.485v8.554A1.589,1.589,0,0,0,1.547,41.67H13.093a1.717,1.717,0,0,0,1.757-1.631V39.7a2.091,2.091,0,0,0,.795-.335,1.736,1.736,0,0,0,.607-1.129l.962-8.491A1.694,1.694,0,0,0,15.728,27.888ZM14.013,40.039a.881.881,0,0,1-.92.795H1.611a.753.753,0,0,1-.775-.73q0-.032,0-.064V38.491l3.242-2.384a1,1,0,0,1,1.3.063l2.28,2.008a1.966,1.966,0,0,0,1.234.46,1.9,1.9,0,0,0,1-.272l4.12-2.384v4.057Zm0-5.04L9.454,37.655a1.067,1.067,0,0,1-1.234-.1l-2.3-2.029A1.861,1.861,0,0,0,3.6,35.438L.837,37.446v-5.96a.844.844,0,0,1,.774-.9H13.093a.962.962,0,0,1,.92.9V35Zm2.364-5.362v.008l-.983,8.491a.711.711,0,0,1-.272.565c-.084.084-.272.125-.272.167V31.485a1.8,1.8,0,0,0-1.757-1.736H3.1l.188-1.631a.962.962,0,0,1,.314-.544.962.962,0,0,1,.627-.167l11.4,1.318A.837.837,0,0,1,16.377,29.636Z" transform="translate(0 -26.576)" fill="#fff"/>
    </g>
  </g>
</svg>
