<svg xmlns="http://www.w3.org/2000/svg" width="15.538" height="15.539" viewBox="0 0 15.538 15.539">
  <path id="home" d="M15.62,6.758h0L9.28.418a1.43,1.43,0,0,0-2.023,0L.922,6.754.915,6.76A1.43,1.43,0,0,0,1.867,9.2l.044,0h.253v4.665a1.676,1.676,0,0,0,1.674,1.674h2.48a.455.455,0,0,0,.455-.455V11.426a.765.765,0,0,1,.764-.764H9a.765.765,0,0,1,.764.764v3.657a.455.455,0,0,0,.455.455H12.7a1.676,1.676,0,0,0,1.674-1.674V9.2h.234A1.431,1.431,0,0,0,15.62,6.758Zm-.645,1.379a.517.517,0,0,1-.368.152h-.69a.455.455,0,0,0-.455.455v5.12a.765.765,0,0,1-.764.764H10.674v-3.2A1.676,1.676,0,0,0,9,9.752H7.537a1.676,1.676,0,0,0-1.674,1.674v3.2H3.838a.765.765,0,0,1-.764-.764V8.744a.455.455,0,0,0-.455-.455h-.7A.519.519,0,0,1,1.562,7.4h0L7.9,1.062a.52.52,0,0,1,.735,0L14.974,7.4l0,0a.521.521,0,0,1,0,.735Zm0,0" transform="translate(-0.5 0.001)" fill="#f85a2f"/>
</svg>
