<svg id="like" xmlns="http://www.w3.org/2000/svg" width="19.532" height="18.718" viewBox="0 0 19.532 18.718">
  <g id="Group_29" data-name="Group 29" transform="translate(0 8.138)">
    <g id="Group_28" data-name="Group 28" transform="translate(0 0)">
      <path id="Path_324" data-name="Path 324" d="M2.035,224A2.037,2.037,0,0,0,0,226.035v6.511a2.037,2.037,0,0,0,2.035,2.035H4.476a2.02,2.02,0,0,0,1.221-.412V224Z" transform="translate(0 -224)" fill="#47576a"/>
    </g>
  </g>
  <g id="Group_31" data-name="Group 31" transform="translate(6.511)">
    <g id="Group_30" data-name="Group 30">
      <path id="Path_325" data-name="Path 325" d="M183.689,21.857a1.8,1.8,0,0,0-.53-1.281,2.021,2.021,0,0,0,.521-1.554,2.1,2.1,0,0,0-2.122-1.845H176.53a11.7,11.7,0,0,0,.648-3.255c0-1.765-1.5-3.255-2.442-3.255a2.56,2.56,0,0,0-1.475.5.409.409,0,0,0-.152.318v2.76l-2.344,5.078-.1.05v8.723a5.332,5.332,0,0,0,2.035.481h7.47a1.872,1.872,0,0,0,1.844-1.422,1.831,1.831,0,0,0-.147-1.222,1.823,1.823,0,0,0,.815-2.442A1.822,1.822,0,0,0,183.689,21.857Z" transform="translate(-170.667 -10.667)" fill="#47576a"/>
    </g>
  </g>
</svg>
