<svg id="logo" xmlns="http://www.w3.org/2000/svg" width="21.995" height="25.399" viewBox="0 0 21.995 25.399">
  <path id="Path_354" data-name="Path 354" d="M216.01,244.827,208,249.45v-3.081l2.668-1.541L208,243.281V240.2l5.342,3.081Z" transform="translate(-197.003 -227.5)" fill="#fe0000"/>
  <path id="Path_355" data-name="Path 355" d="M59.168,298.48,56.5,300.026l8.01,4.623v-3.081Z" transform="translate(-53.513 -282.699)" fill="#a60000"/>
  <path id="Path_356" data-name="Path 356" d="M64.51,65.25,56.5,69.873v9.255l2.668-1.546V71.419l5.342-3.087Z" transform="translate(-53.513 -61.8)" fill="#fe0000"/>
  <path id="Path_357" data-name="Path 357" d="M216.01,69.873,208,65.25v3.081l5.342,3.087Z" transform="translate(-197.003 -61.8)" fill="#a60000"/>
  <path id="Path_358" data-name="Path 358" d="M2.749,17.463V7.936L11,3.178V0L0,6.35v12.7Z" fill="#fe8f00"/>
  <path id="Path_359" data-name="Path 359" d="M11,335.058,2.749,330.3,0,331.886l11,6.35Z" transform="translate(0 -312.837)" fill="#fff"/>
  <path id="Path_360" data-name="Path 360" d="M208,3.178l8.248,4.758L219,6.35,208,0Z" transform="translate(-197.003)" fill="#fff"/>
  <path id="Path_361" data-name="Path 361" d="M208,338.236v-3.178l8.248-4.758L219,331.886Z" transform="translate(-197.003 -312.837)" fill="#fe8f00"/>
</svg>
