<svg id="lines__x003C_Group_x003E_" xmlns="http://www.w3.org/2000/svg" width="13.411" height="13.346" viewBox="0 0 13.411 13.346">
  <g id="circle" transform="translate(0.112 9.788)">
    <path id="Path_315" data-name="Path 315" d="M7.415,339.664a1.773,1.773,0,1,1-1.774-1.774A1.773,1.773,0,0,1,7.415,339.664Z" transform="translate(-3.868 -337.89)" fill="#fff"/>
  </g>
  <g id="Group_22" data-name="Group 22" transform="translate(0 4.543)">
    <g id="Group_21" data-name="Group 21">
      <path id="Path_316" data-name="Path 316" d="M0,159.505a.46.46,0,0,0,.437.459,5.676,5.676,0,0,1,4.018,1.819,6.7,6.7,0,0,1,1.862,4,.46.46,0,0,0,.458.422H8.424a.461.461,0,0,0,.46-.484,8.7,8.7,0,0,0-8.4-8.319.461.461,0,0,0-.484.46Z" transform="translate(0 -157.406)" fill="#fff"/>
    </g>
  </g>
  <g id="Group_24" data-name="Group 24" transform="translate(0 0)">
    <g id="Group_23" data-name="Group 23">
      <path id="Path_317" data-name="Path 317" d="M0,3.214a.46.46,0,0,0,.442.46A10.8,10.8,0,0,1,10.85,14.017a.46.46,0,0,0,.46.442h1.641a.46.46,0,0,0,.46-.476A13.244,13.244,0,0,0,.476,1.112.461.461,0,0,0,0,1.573Z" transform="translate(0 -1.112)" fill="#fff"/>
    </g>
  </g>
</svg>
