<svg id="shopping-cart" xmlns="http://www.w3.org/2000/svg" width="16.807" height="16.844" viewBox="0 0 16.807 16.844">
  <g id="Group_26" data-name="Group 26" transform="translate(0)">
    <g id="Group_25" data-name="Group 25">
      <path id="Path_318" data-name="Path 318" d="M107.87,361.535a1.829,1.829,0,1,0,1.829,1.829A1.829,1.829,0,0,0,107.87,361.535Zm0,2.9h0a1.067,1.067,0,1,1,1.067-1.067A1.067,1.067,0,0,1,107.87,364.431Z" transform="translate(-102.192 -348.35)" fill="#fff"/>
      <path id="Path_319" data-name="Path 319" d="M296.475,361.535a1.829,1.829,0,1,0,1.829,1.829A1.829,1.829,0,0,0,296.475,361.535Zm0,2.9h0a1.067,1.067,0,1,1,1.067-1.067A1.067,1.067,0,0,1,296.475,364.431Z" transform="translate(-283.919 -348.35)" fill="#fff"/>
      <path id="Path_320" data-name="Path 320" d="M17.236,2.668a.438.438,0,0,0-.3-.191H4.108A3.114,3.114,0,0,0,.926,0H.888a.381.381,0,0,0,0,.762H.926a2.42,2.42,0,0,1,2.439,2.02l1.258,7.355A2.267,2.267,0,0,0,6.871,12h7.641a.381.381,0,0,0,0-.762H6.871a1.467,1.467,0,0,1-1.486-1.219l-.1-.5h8.479a2.344,2.344,0,0,0,2.21-1.715L17.293,3.03A.4.4,0,0,0,17.236,2.668Zm-2,4.992a1.524,1.524,0,0,1-1.467,1.105H5.156L4.6,5.526H15.826Zm.819-2.9H4.47L4.242,3.239H16.436Z" transform="translate(-0.507)" fill="#fff"/>
    </g>
  </g>
</svg>
