<svg xmlns="http://www.w3.org/2000/svg" width="21.147" height="19.66" viewBox="0 0 21.147 19.66">
  <g id="upload" transform="translate(0 0)">
    <path id="Path_295" data-name="Path 295" d="M17.843,0H3.3A3.308,3.308,0,0,0,0,3.3V14.869a3.308,3.308,0,0,0,3.3,3.3H14.58a.826.826,0,0,0,0-1.652H11.537l-1.9-2.464L15.657,6.4l4.052,4.478a.826.826,0,0,0,1.439-.554V3.3a3.308,3.308,0,0,0-3.3-3.3ZM19.5,8.181l-3.27-3.614a.826.826,0,0,0-1.262.044L8.6,12.707,6.437,9.9a.826.826,0,0,0-.654-.322h0a.826.826,0,0,0-.654.322L3.31,12.268a.826.826,0,0,0,1.31,1.007l1.164-1.513,3.668,4.759H3.3a1.654,1.654,0,0,1-1.652-1.652V3.3A1.654,1.654,0,0,1,3.3,1.652H17.843A1.654,1.654,0,0,1,19.5,3.3Zm0,0" fill="#f85a2f"/>
    <path id="Path_296" data-name="Path 296" d="M82.478,72a2.478,2.478,0,1,0,2.478,2.478A2.481,2.481,0,0,0,82.478,72Zm0,3.3a.826.826,0,1,1,.826-.826A.827.827,0,0,1,82.478,75.3Zm0,0" transform="translate(-76.696 -69.026)" fill="#f85a2f"/>
    <path id="Path_297" data-name="Path 297" d="M357.769,288.617l-.007-.007a2.059,2.059,0,0,0-2.922,0l-1.595,1.573a.826.826,0,0,0,1.16,1.176l1.068-1.053v4.636a.826.826,0,0,0,1.652,0v-4.611l1.022,1.055a.826.826,0,1,0,1.187-1.149Zm0,0" transform="translate(-338.419 -276.105)" fill="#f85a2f"/>
  </g>
</svg>
