<svg id="user" xmlns="http://www.w3.org/2000/svg" width="13.638" height="16.347" viewBox="0 0 13.638 16.347">
  <path id="Path_321" data-name="Path 321" d="M90.969,7.875a3.81,3.81,0,0,0,2.784-1.153,3.81,3.81,0,0,0,1.153-2.784,3.81,3.81,0,0,0-1.153-2.784,3.936,3.936,0,0,0-5.568,0,3.81,3.81,0,0,0-1.153,2.784,3.81,3.81,0,0,0,1.153,2.784A3.811,3.811,0,0,0,90.969,7.875ZM88.863,1.831a2.978,2.978,0,0,1,4.213,0,2.846,2.846,0,0,1,.873,2.106,2.846,2.846,0,0,1-.873,2.106,2.978,2.978,0,0,1-4.213,0,2.846,2.846,0,0,1-.873-2.106,2.846,2.846,0,0,1,.873-2.106Zm0,0" transform="translate(-84.253 0)" fill="#fff"/>
  <path id="Path_322" data-name="Path 322" d="M13.6,251.99a9.726,9.726,0,0,0-.132-1.033,8.137,8.137,0,0,0-.254-1.038,5.131,5.131,0,0,0-.427-.969,3.65,3.65,0,0,0-.644-.839,2.839,2.839,0,0,0-.925-.581,3.2,3.2,0,0,0-1.181-.214,1.2,1.2,0,0,0-.64.271c-.192.125-.416.27-.667.43a3.822,3.822,0,0,1-.863.38,3.349,3.349,0,0,1-2.11,0,3.81,3.81,0,0,1-.862-.38c-.248-.159-.473-.3-.667-.43a1.2,1.2,0,0,0-.64-.271,3.192,3.192,0,0,0-1.18.214,2.836,2.836,0,0,0-.925.581,3.652,3.652,0,0,0-.644.839,5.139,5.139,0,0,0-.427.969,8.157,8.157,0,0,0-.254,1.038,9.659,9.659,0,0,0-.132,1.033c-.022.312-.033.637-.033.965a2.714,2.714,0,0,0,.806,2.054,2.9,2.9,0,0,0,2.077.758h7.871a2.9,2.9,0,0,0,2.077-.758,2.713,2.713,0,0,0,.806-2.054c0-.329-.011-.654-.033-.966Zm-1.434,2.325a1.954,1.954,0,0,1-1.417.494H2.883a1.954,1.954,0,0,1-1.417-.494,1.772,1.772,0,0,1-.509-1.36c0-.306.01-.609.03-.9a8.712,8.712,0,0,1,.12-.93,7.2,7.2,0,0,1,.223-.916,4.184,4.184,0,0,1,.347-.788,2.707,2.707,0,0,1,.473-.62,1.884,1.884,0,0,1,.615-.382,2.2,2.2,0,0,1,.754-.146c.034.018.093.052.19.115.2.128.424.275.675.435a4.748,4.748,0,0,0,1.083.484,4.307,4.307,0,0,0,2.7,0,4.752,4.752,0,0,0,1.083-.484c.257-.164.477-.306.674-.435.1-.063.157-.1.19-.115a2.206,2.206,0,0,1,.755.146,1.887,1.887,0,0,1,.615.382,2.7,2.7,0,0,1,.473.62,4.17,4.17,0,0,1,.348.787,7.179,7.179,0,0,1,.223.916,8.785,8.785,0,0,1,.12.931h0c.02.289.031.592.031.9a1.772,1.772,0,0,1-.509,1.36Zm0,0" transform="translate(0 -239.42)" fill="#fff"/>
</svg>
